# AST/ASF file generated using VICON BodyLanguage
# -----------------------------------------------
:version 1.10
:name VICON
:units
  mass 1.0
  length 0.45
  angle deg
:documentation
   .ast/.asf automatically generated from VICON data using
   VICON BodyBuilder and BodyLanguage model FoxedUp or BRILLIANT.MOD
:root
   order TX TY TZ RX RY RZ
   axis XYZ
   position 0 0 0  
   orientation 0 0 0 
:bonedata
  begin
     id 1 
     name lhipjoint
     direction 0.722297 -0.617336 0.311742 
     length 2.6635 
     axis 0 0 0  XYZ
  end
  begin
     id 2 
     name lfemur
     direction 0.34202 -0.939693 0  
     length 7.39349  
     axis 0 0 20  XYZ
    dof rx ry rz
    limits (-160.0 20.0)
           (-70.0 70.0)
           (-60.0 70.0)
  end
  begin
     id 3 
     name ltibia
     direction 0.34202 -0.939693 0   
     length 7.36294   
     axis 0 0 20   XYZ
    dof rx
    limits (-10.0 170.0)
  end
  begin
     id 4 
     name lfoot
     direction 0.104879 -0.288152 0.951824   
     length 2.16981   
     axis -90 7.62852e-016 20   XYZ
    dof rx rz
    limits (-45.0 90.0)
           (-70.0 20.0)
  end
  begin
     id 5 
     name ltoes
     direction 1.53586e-011 -4.21895e-011 1   
     length 1.08218   
     axis -90 7.62852e-016 20   XYZ
    dof rx
    limits (-90.0 20.0)
  end
  begin
     id 6 
     name rhipjoint
     direction -0.75102 -0.589393 0.297631   
     length 2.78977  
     axis 0 0 0  XYZ 
  end
  begin
     id 7 
     name rfemur
     direction -0.34202 -0.939693 0   
     length 7.46076   
     axis 0 0 -20   XYZ
    dof rx ry rz
    limits (-160.0 20.0)
           (-70.0 70.0)
           (-70.0 60.0)
  end
  begin
     id 8 
     name rtibia
     direction -0.34202 -0.939693 0   
     length 7.31726   
     axis 0 0 -20   XYZ
    dof rx
    limits (-10.0 170.0)
 end
 begin
     id 9 
     name rfoot
     direction -0.107991 -0.296704 0.948844   
     length 2.09388  
     axis -90 -7.62852e-016 -20   XYZ
    dof rx rz
    limits (-45.0 90.0)
           (-20.0 70.0)
  end
  begin
     id 10 
     name rtoes
     direction -1.53559e-011 -4.21911e-011 1   
     length 1.04433   
     axis -90 -7.62852e-016 -20   XYZ
    dof rx
    limits (-90.0 20.0)
  end
  begin
     id 11 
     name lowerback
     direction 0.0165164 0.98272 0.184358   
     length 1.71896   
     axis 0 0 0   XYZ
    dof rx ry rz
    limits (-20.0 45.0)
           (-30.0 30.0)
           (-30.0 30.0)
  end
  begin
     id 12 
     name upperback
     direction -0.00887249 0.992297 0.123566   
     length 1.71504   
     axis 0 0 0   XYZ
    dof rx ry rz
    limits (-20.0 45.0)
           (-30.0 30.0)
           (-30.0 30.0)
  end
  begin
     id 13 
     name thorax
     direction -0.0157026 0.998908 0.0440032   
     length 1.77022   
     axis 0 0 0   XYZ
    dof rx ry rz
    limits (-20.0 45.0)
           (-30.0 30.0)
           (-30.0 30.0)
  end
  begin
     id 14 
     name lowerneck
     direction -0.0238856 0.998137 0.0561411   
     length 1.89341   
     axis 0 0 0   XYZ
    dof rx ry rz
    limits (-20.0 45.0)
           (-30.0 30.0)
           (-30.0 30.0)
  end
  begin
     id 15 
     name upperneck
     direction 0.0276574 0.952253 -0.304056   
     length 1.86999   
     axis 0 0 0   XYZ
    dof rx ry rz
    limits (-20.0 45.0)
           (-30.0 30.0)
           (-30.0 30.0)
  end
  begin
     id 16
     name head
     direction 0.00800083 0.994258 -0.106712  
     length 1.91492  
     axis 0 0 0   XYZ
    dof rx ry rz
    limits (-20.0 45.0)
           (-30.0 30.0)
           (-30.0 30.0)
  end
  begin
     id 17 
     name lclavicle
     direction 0.97203 0.225407 0.06595  
     length 3.34889  
     axis 0 0 0   XYZ
    dof ry rz
    limits (-20.0 10.0)
           (0.0 20.0)
  end
  begin
     id 18 
     name lhumerus
     direction 1 -4.48973e-011 2.20267e-027   
     length 4.85645   
     axis 180 -30 -90   XYZ
    dof rx ry rz
    limits (-60.0 90.0)
           (-90.0 90.0)
           (-90.0 90.0)
  end
  begin
     id 19
     name lradius
     direction 1 -4.4897e-011 4.60472e-027   
     length 2.79874   
     axis 180 -30 -90   XYZ
    dof rx
    limits (-10.0 170.0)
  end
  begin
     id 20
     name lwrist
     direction 1 -4.48952e-011 1.14928e-026   
     length 1.39937   
     axis -6.29373e-015 90 90   XYZ
    dof ry
    limits (-180.0 0.0)
 end
  begin
     id 21 
     name lhand
     direction 1 -4.48967e-011 2.29886e-026   
     length 0.573398   
     axis -1.46689e-014 90 90   XYZ
    dof rx rz
    limits (-90.0 90.0)
           (-45.0 45.0)
  end
  begin
     id 22 
     name lfingers
     direction 1 -4.48955e-011 4.59726e-026   
     length 0.462289   
     axis -2.93383e-014 90 90   XYZ
    dof rx
    limits (0.0 90.0)
  end
  begin
     id 23
     name lthumb
     direction 0.707107 -6.34866e-011 0.707107   
     length 0.663757   
     axis -90 45 5.69224e-014   XYZ
    dof rx rz
    limits (-45.0 45.0)
           (-45.0 45.0)
  end
  begin
     id 24 
     name rclavicle
     direction -0.981571 0.157346 0.108443   
     length 3.35257  
     axis 0 0 0   XYZ 
    dof ry rz
    limits (-10.0 20.0)
           (-20.0 0.0)
  end
  begin
     id 25 
     name rhumerus
     direction -1 -4.48967e-011 8.58308e-029  
     length 4.67018   
     axis 180 30 90   XYZ
    dof rx ry rz
    limits (-90.0 60.0)
           (-90.0 90.0)
           (-90.0 90.0)
  end
  begin
     id 26 
     name rradius
     direction -1 -4.48958e-011 4.52548e-027   
     length 2.65534   
     axis 180 30 90   XYZ
    dof rx
    limits (-10.0 170.0)
  end
  begin
     id 27 
     name rwrist
     direction -1 -4.48977e-011 1.14952e-026   
     length 1.32767   
     axis -6.29373e-015 -90 -90   XYZ
    dof ry
    limits (-180.0 0.0)
  end
  begin
     id 28
     name rhand
     direction -1 -4.48924e-011 2.29804e-026   
     length 0.594069   
     axis -1.46689e-014 -90 -90   XYZ
    dof rx rz
    limits (-90.0 90.0)
           (-45.0 45.0)
  end
  begin
     id 29
     name rfingers
     direction -1 -4.48998e-011 4.59888e-026   
     length 0.478954   
     axis -2.93383e-014 -90 -90   XYZ
    dof rx
    limits (0.0 90.0)
  end
  begin
     id 30
     name rthumb
     direction -0.707107 -6.34933e-011 0.707107   
     length 0.687685   
     axis -90 -45 -5.69224e-014   XYZ
    dof rx rz
    limits (-45.0 45.0)
           (-45.0 45.0)
  end
:hierarchy
  begin
    root lhipjoint rhipjoint lowerback
    lhipjoint lfemur
    lfemur ltibia
    ltibia lfoot
    lfoot ltoes
    rhipjoint rfemur
    rfemur rtibia
    rtibia rfoot
    rfoot rtoes
    lowerback upperback
    upperback thorax
    thorax lowerneck lclavicle rclavicle
    lowerneck upperneck
    upperneck head
    lclavicle lhumerus
    lhumerus lradius
    lradius lwrist
    lwrist lhand lthumb
    lhand lfingers
    rclavicle rhumerus
    rhumerus rradius
    rradius rwrist
    rwrist rhand rthumb
    rhand rfingers
  end

#!OML:ASF E:\pregnant2\Project 1\Capture day 1\Session 1\pregnant2.ASF
:FULLY-SPECIFIED
:DEGREES
174
root 6.34463 17.1393 3.06035 -152.044 -27.9504 179.41
lowerback -19.2603 5.072 4.78774
upperback -14.0695 3.46812 -6.0282
thorax -3.87983 0.0223471 -8.62673
lowerneck -4.52333 2.92527 4.09697
upperneck 33.3426 3.2837 -8.93502
head 11.8534 -0.221675 -3.9917
rclavicle -6.34123e-014 3.57812e-014
rhumerus -95.5772 15.9848 -127.969
rradius 102.772
rwrist -56.9472
rhand -31.4571 -68.7824
rfingers 7.12502
rthumb 175.275 -81.2903
lclavicle -6.34123e-014 3.57812e-014
lhumerus -113.195 -38.8074 134.351
lradius 103.68
lwrist 78.0564
lhand -29.4724 73.4852
lfingers 7.12502
lthumb 177.192 76.5536
rfemur -32.881 -3.73374 24.5673
rtibia 47.1109
rfoot -13.4454 -21.9452
rtoes -8.84059
lfemur -49.8668 -3.80002 -26.3211
ltibia 30.3004
lfoot -4.76468 23.7783
ltoes 3.86614
175
root 6.28654 17.1402 3.00468 -151.982 -28.286 179.248
lowerback -19.2165 5.09035 4.67587
upperback -14.0948 3.51276 -6.09803
thorax -3.92434 0.0489111 -8.63367
lowerneck -4.60076 2.91159 4.25586
upperneck 33.1016 3.31563 -8.99959
head 11.7765 -0.167052 -4.0244
rclavicle -1.24439e-013 6.20208e-014
rhumerus -95.5439 15.8374 -127.962
rradius 102.731
rwrist -56.8435
rhand -31.4562 -68.7568
rfingers 7.12502
rthumb 175.276 -81.3158
lclavicle -1.24439e-013 6.20208e-014
lhumerus -113.33 -38.918 134.536
lradius 103.643
lwrist 78.2095
lhand -29.5166 73.7684
lfingers 7.12502
lthumb 177.149 76.2709
rfemur -33.6974 -4.39724 24.4374
rtibia 48.8609
rfoot -12.0542 -21.4569
rtoes -7.95662
lfemur -49.5018 -3.91375 -26.5986
ltibia 30.2106
lfoot -5.04965 23.4984
ltoes 3.63534
176
root 6.23001 17.1405 2.95024 -151.907 -28.6418 179.086
lowerback -19.1642 5.105 4.55232
upperback -14.1296 3.55211 -6.16981
thorax -3.98555 0.071785 -8.63752
lowerneck -4.68337 2.90202 4.43531
upperneck 32.855 3.33873 -9.01661
head 11.6977 -0.107169 -4.0429
rclavicle -4.94974e-014 -4.13472e-014
rhumerus -95.5112 15.6797 -127.949
rradius 102.691
rwrist -56.7573
rhand -31.4549 -68.7331
rfingers 7.12502
rthumb 175.278 -81.3395
lclavicle -4.94974e-014 -4.13472e-014
lhumerus -113.53 -39.0351 134.794
lradius 103.612
lwrist 78.3625
lhand -29.5737 74.2922
lfingers 7.12502
lthumb 177.094 75.7478
rfemur -34.5569 -5.00648 24.2991
rtibia 50.5905
rfoot -10.5642 -20.9951
rtoes -6.61791
lfemur -49.1535 -4.02375 -26.8733
ltibia 30.1144
lfoot -5.32304 23.1971
ltoes 3.40625
177
root 6.17505 17.1405 2.89659 -151.825 -29.0141 178.918
lowerback -19.1082 5.11227 4.405
upperback -14.1632 3.58579 -6.23558
thorax -4.04992 0.0942402 -8.62198
lowerneck -4.78141 2.89894 4.62221
upperneck 32.6026 3.36155 -8.99599
head 11.6199 -0.0411793 -4.04791
rclavicle 1.09332e-014 -1.51076e-014
rhumerus -95.4792 15.5349 -127.918
rradius 102.662
rwrist -56.6961
rhand -31.4892 -68.7052
rfingers 7.12502
rthumb 175.244 -81.3681
lclavicle 1.09332e-014 -1.51076e-014
lhumerus -113.779 -39.1493 135.124
lradius 103.544
lwrist 78.4209
lhand -29.4968 74.5651
lfingers 7.12502
lthumb 177.168 75.4739
rfemur -35.4394 -5.56111 24.149
rtibia 52.2802
rfoot -8.96944 -20.5545
rtoes -4.84505
lfemur -48.8119 -4.15339 -27.1324
ltibia 30.0152
lfoot -5.5859 22.9032
ltoes 3.19661
178
root 6.12145 17.1403 2.84341 -151.743 -29.4099 178.762
lowerback -19.0559 5.11436 4.25207
upperback -14.1929 3.61461 -6.29271
thorax -4.10974 0.116158 -8.5943
lowerneck -4.87676 2.89949 4.84192
upperneck 32.3278 3.38386 -8.96653
head 11.5334 0.0312076 -4.05424
rclavicle -2.62396e-014 -1.82882e-014
rhumerus -95.443 15.4051 -127.874
rradius 102.641
rwrist -56.6582
rhand -31.5445 -68.6725
rfingers 7.12502
rthumb 175.191 -81.4021
lclavicle -2.62396e-014 -1.82882e-014
lhumerus -114.073 -39.2628 135.514
lradius 103.438
lwrist 78.3735
lhand -29.2673 74.5228
lfingers 7.12502
lthumb 177.39 75.5134
rfemur -36.3318 -6.05487 24.0035
rtibia 53.9113
rfoot -7.32909 -20.1274
rtoes -2.58485
lfemur -48.481 -4.31427 -27.3517
ltibia 29.9194
lfoot -5.84184 22.6291
ltoes 3.02399
179
root 6.06895 17.1402 2.79065 -151.662 -29.836 178.622
lowerback -19.0086 5.11291 4.10493
upperback -14.2186 3.63957 -6.33823
thorax -4.16364 0.137561 -8.55754
lowerneck -4.98058 2.90809 5.07021
upperneck 32.0491 3.4115 -8.91865
head 11.4483 0.10923 -4.0545
rclavicle 1.90833e-014 -3.73715e-014
rhumerus -95.4081 15.2906 -127.812
rradius 102.63
rwrist -56.6399
rhand -31.6324 -68.638
rfingers 7.12502
rthumb 175.106 -81.4385
lclavicle 1.90833e-014 -3.73715e-014
lhumerus -114.405 -39.3745 135.962
lradius 103.326
lwrist 78.3074
lhand -29.0313 74.2928
lfingers 7.12502
lthumb 177.618 75.7407
rfemur -37.2183 -6.48535 23.8712
rtibia 55.4674
rfoot -5.76504 -19.7016
rtoes -0.0611162
lfemur -48.1625 -4.51349 -27.5229
ltibia 29.8313
lfoot -6.08676 22.3765
ltoes 2.88845
180
root 6.01742 17.1399 2.73818 -151.58 -30.2993 178.505
lowerback -18.9779 5.1111 3.97482
upperback -14.2459 3.66082 -6.37578
thorax -4.2113 0.156335 -8.5221
lowerneck -5.07894 2.92741 5.32103
upperneck 31.7725 3.44586 -8.85756
head 11.3646 0.193823 -4.05349
rclavicle -9.56154e-014 9.06458e-014
rhumerus -95.3758 15.1772 -127.747
rradius 102.621
rwrist -56.6242
rhand -31.7004 -68.5717
rfingers 7.12502
rthumb 175.041 -81.5063
lclavicle -9.56154e-014 9.06458e-014
lhumerus -114.78 -39.4854 136.452
lradius 103.228
lwrist 78.2514
lhand -28.8282 74.0038
lfingers 7.12502
lthumb 177.814 76.0277
rfemur -38.0945 -6.84711 23.7651
rtibia 56.9344
rfoot -4.44854 -19.2743
rtoes 2.33902
lfemur -47.8701 -4.74219 -27.6452
ltibia 29.7564
lfoot -6.32293 22.1272
ltoes 2.78849
181
root 5.96661 17.1398 2.68574 -151.492 -30.8049 178.416
lowerback -18.9758 5.11095 3.86767
upperback -14.2851 3.6763 -6.40668
thorax -4.25836 0.168819 -8.49312
lowerneck -5.11782 2.95531 5.59706
upperneck 31.4834 3.48305 -8.78915
head 11.2653 0.282852 -4.05368
rclavicle -6.24184e-014 3.4191e-014
rhumerus -95.3652 15.0504 -127.695
rradius 102.614
rwrist -56.6077
rhand -31.7973 -68.4932
rfingers 7.12502
rthumb 174.947 -81.587
lclavicle -6.24184e-014 3.4191e-014
lhumerus -115.205 -39.571 136.972
lradius 103.169
lwrist 78.2599
lhand -28.7481 73.8908
lfingers 7.12502
lthumb 177.892 76.1399
rfemur -38.9567 -7.13292 23.688
rtibia 58.3001
rfoot -3.53495 -18.8559
rtoes 4.24126
lfemur -47.6094 -5.00197 -27.7139
ltibia 29.6963
lfoot -6.54904 21.8779
ltoes 2.70988
182
root 5.91653 17.1397 2.63368 -151.407 -31.345 178.355
lowerback -18.9847 5.11508 3.78638
upperback -14.3402 3.68943 -6.43355
thorax -4.31733 0.175814 -8.47529
lowerneck -5.0971 2.99492 5.88414
upperneck 31.1981 3.52431 -8.69585
head 11.1567 0.37603 -4.04681
rclavicle -3.37934e-015 6.04305e-014
rhumerus -95.3745 14.8961 -127.655
rradius 102.599
rwrist -56.5725
rhand -31.8286 -68.4103
rfingers 7.12502
rthumb 174.917 -81.6706
lclavicle -3.37934e-015 6.04305e-014
lhumerus -115.678 -39.6293 137.512
lradius 103.155
lwrist 78.3414
lhand -28.8045 74.1842
lfingers 7.12502
lthumb 177.837 75.8471
rfemur -39.7955 -7.33284 23.6328
rtibia 59.5558
rfoot -3.08885 -18.4544
rtoes 5.41067
lfemur -47.3741 -5.28327 -27.7353
ltibia 29.6547
lfoot -6.76574 21.6274
ltoes 2.63618
183
root 5.86706 17.1396 2.58179 -151.313 -31.9184 178.311
lowerback -19.0192 5.11975 3.72406
upperback -14.4008 3.69782 -6.45765
thorax -4.36973 0.178238 -8.46563
lowerneck -5.06341 3.04909 6.18052
upperneck 30.9377 3.57621 -8.58239
head 11.0573 0.474745 -4.03485
rclavicle 3.61788e-014 5.32743e-014
rhumerus -95.3872 14.7352 -127.624
rradius 102.574
rwrist -56.5111
rhand -31.8311 -68.2943
rfingers 7.12502
rthumb 174.914 -81.7867
lclavicle 3.61788e-014 5.32743e-014
lhumerus -116.166 -39.6789 138.053
lradius 103.186
lwrist 78.5051
lhand -28.9969 74.8833
lfingers 7.12502
lthumb 177.651 75.1499
rfemur -40.6185 -7.44736 23.587
rtibia 60.6902
rfoot -3.07295 -18.0639
rtoes 5.78976
lfemur -47.1703 -5.56921 -27.7333
ltibia 29.6302
lfoot -6.97588 21.3542
ltoes 2.55492
184
root 5.81882 17.1391 2.53225 -151.215 -32.5284 178.282
lowerback -19.0554 5.12088 3.69184
upperback -14.4586 3.69927 -6.47428
thorax -4.41824 0.176215 -8.46629
lowerneck -5.00883 3.09857 6.46582
upperneck 30.6701 3.61918 -8.4585
head 10.9506 0.568455 -4.0182
rclavicle 2.5842e-014 -1.82882e-014
rhumerus -95.3888 14.5926 -127.589
rradius 102.542
rwrist -56.4293
rhand -31.7629 -68.1984
rfingers 7.12502
rthumb 174.98 -81.8811
lclavicle 2.5842e-014 -1.82882e-014
lhumerus -116.63 -39.7258 138.582
lradius 103.211
lwrist 78.699
lhand -29.1778 75.6155
lfingers 7.12502
lthumb 177.477 74.4197
rfemur -41.4329 -7.47658 23.5445
rtibia 61.6971
rfoot -3.37665 -17.6845
rtoes 5.516
lfemur -46.9978 -5.86618 -27.7061
ltibia 29.6218
lfoot -7.17603 21.0631
ltoes 2.47301
185
root 5.7711 17.1388 2.48365 -151.134 -33.1515 178.268
lowerback -19.1171 5.11611 3.67544
upperback -14.4752 3.70227 -6.46781
thorax -4.40678 0.183187 -8.44798
lowerneck -5.01654 3.17022 6.72665
upperneck 30.4173 3.69955 -8.34046
head 10.8662 0.674529 -3.99659
rclavicle -6.36111e-014 -1.21656e-013
rhumerus -95.3507 14.5235 -127.526
rradius 102.509
rwrist -56.343
rhand -31.6831 -68.1164
rfingers 7.12502
rthumb 175.057 -81.9613
lclavicle -6.36111e-014 -1.21656e-013
lhumerus -116.991 -39.8046 139.074
lradius 103.179
lwrist 78.8341
lhand -29.239 76.0758
lfingers 7.12502
lthumb 177.418 73.9601
rfemur -42.2109 -7.40368 23.4864
rtibia 62.5643
rfoot -3.81814 -17.2961
rtoes 4.82506
lfemur -46.8273 -6.17615 -27.6519
ltibia 29.6281
lfoot -7.37521 20.7875
ltoes 2.40013
186
root 5.72381 17.1386 2.43545 -151.058 -33.7858 178.258
lowerback -19.1807 5.10648 3.66665
upperback -14.4722 3.7044 -6.44517
thorax -4.37264 0.194035 -8.41551
lowerneck -5.05231 3.25796 7.00084
upperneck 30.1826 3.80494 -8.24461
head 10.7981 0.789385 -3.98428
rclavicle -6.36111e-015 1.43125e-014
rhumerus -95.2959 14.4963 -127.454
rradius 102.474
rwrist -56.2501
rhand -31.5838 -68.0309
rfingers 7.12502
rthumb 175.153 -82.0445
lclavicle -6.36111e-015 1.43125e-014
lhumerus -117.279 -39.8923 139.538
lradius 103.076
lwrist 78.8971
lhand -29.1507 76.1242
lfingers 7.12502
lthumb 177.503 73.9107
rfemur -42.9595 -7.23382 23.4041
rtibia 63.2942
rfoot -4.28803 -16.8887
rtoes 4.05416
lfemur -46.6623 -6.48421 -27.5886
ltibia 29.6498
lfoot -7.58169 20.5118
ltoes 2.32525
